# xmcd
#
# Track frame offsets: 
#        150
#        45491
#        66582
#        69918
#        91395
#        98055
#        134461
#        135302
#        140577
#        156653
#        163319
#        173704
#        177331
#        178188
#        178599
#        189370
#        192713
#        197548
#        231436
#        236784
#        244401
#        249934
#        254174
#        254979
#        255989
#        258508
#        262699
#        265761
#        267654
#        269013
#        270932
#        272126
#        284225
#        285376
#        291797
#        302665
#        337764
#
# Disc length: 4758 seconds
#
# Revision: 0
# Processed by: cddbd v1.5.2PL0 Copyright (c) Steve Scherf et al.
# Submitted via: ExactAudioCopy v0.95b3
#
DISCID=50129425
DTITLE=The Beatles  - The Beatles Deluxe - Disc 09 - The Beatles Go To
DTITLE=o Far  PC-139  FLAC
DYEAR=1900
DGENRE=
TTITLE0=Revolution 1 - take 20 (playback)
TTITLE1=Revolution 1 - take 20 (playback)
TTITLE2=Jamming
TTITLE3=Jamming
TTITLE4=Tuning and dialogue
TTITLE5=Jamming and Revolution 1 - rehearsal
TTITLE6=Jamming
TTITLE7=Revolution 1 - take 20 (overdub)
TTITLE8=Revolution 1 - take 20 (playback)
TTITLE9=Revolution 1 - take 20 (playback)
TTITLE10=Jamming
TTITLE11=Jamming
TTITLE12=Jamming
TTITLE13=Jamming
TTITLE14=Jamming
TTITLE15=Revolution 1 - take 20 (playback)
TTITLE16=Revolution 1 - take 20 (playback)
TTITLE17=Revolution 1 - take 20 (playback+overdub)
TTITLE18=Revolution 1 - take 20 (playback)
TTITLE19=Revolution 1 - take 20 (playback)
TTITLE20=Revolution 1 - take 20 (playback)
TTITLE21=Jamming
TTITLE22=Jamming
TTITLE23=Jamming
TTITLE24=Revolution 1 - take 20 (playback)
TTITLE25=Dialogue
TTITLE26=Dialogue
TTITLE27=Dialogue
TTITLE28=Revolution 1 - take 20 (playback)
TTITLE29=Revolution 1 - take 20 (playback)
TTITLE30=Dialogue
TTITLE31=Dialogue+tape loop
TTITLE32=Tape loop
TTITLE33=Dialogue
TTITLE34=Revolution 1 - RM1
TTITLE35=Revolution 9 - RM1
TTITLE36=Revolution 1 (removed edit)
EXTD=
EXTT0=
EXTT1=
EXTT2=
EXTT3=
EXTT4=
EXTT5=
EXTT6=
EXTT7=
EXTT8=
EXTT9=
EXTT10=
EXTT11=
EXTT12=
EXTT13=
EXTT14=
EXTT15=
EXTT16=
EXTT17=
EXTT18=
EXTT19=
EXTT20=
EXTT21=
EXTT22=
EXTT23=
EXTT24=
EXTT25=
EXTT26=
EXTT27=
EXTT28=
EXTT29=
EXTT30=
EXTT31=
EXTT32=
EXTT33=
EXTT34=
EXTT35=
EXTT36=
PLAYORDER=
